<svg xmlns="http://www.w3.org/2000/svg" width="490" height="317" viewBox="0 0 490 317" version="1.1">
	<path d="M 407.388 24.285 C 406.226 24.953, 403.031 28.200, 400.287 31.500 C 389.710 44.222, 379.123 52.244, 367.887 56.050 C 362.437 57.897, 359.959 58.144, 351 57.734 C 338.704 57.172, 330.138 54.705, 312.028 46.513 C 286.606 35.012, 271.287 31.581, 245.500 31.610 C 222.328 31.636, 206.715 34.187, 179 42.478 C 172.675 44.370, 161.622 47.044, 154.437 48.420 C 99.992 58.848, 40.277 90.811, 27.588 116.317 C 22.335 126.875, 22.416 127.360, 35.812 165.500 C 42.379 184.200, 54.604 219.300, 62.977 243.500 C 77.635 285.867, 78.356 287.652, 82.378 291.595 C 102.454 311.275, 172.203 301.991, 232.876 271.562 C 256.016 259.957, 277.746 242.513, 284.294 230.286 C 288.671 222.112, 288.804 217.187, 284.949 206.157 C 282.234 198.387, 281.921 196.663, 283.092 195.922 C 285.337 194.501, 304.929 194.860, 317.004 196.544 C 331.261 198.533, 337.995 200.632, 357.287 209.100 C 381.559 219.755, 387.634 221.339, 404.500 221.408 C 420.836 221.475, 426.362 220.006, 439 212.238 C 446.890 207.389, 464.194 190.867, 469.415 183.198 C 472.281 178.988, 472.310 178.809, 471.157 172.547 C 470.276 167.766, 470.264 164.866, 471.111 160.919 C 473.560 149.499, 470.069 140.313, 460.551 133.126 C 456.286 129.906, 455 128.326, 455 126.305 C 455 121.734, 450.606 115.762, 444.194 111.619 C 438.591 107.999, 438.144 107.429, 437.540 103.119 C 436.448 95.331, 435.053 92.280, 430.843 88.477 L 426.797 84.822 427.871 75.742 C 428.827 67.652, 428.745 66.218, 427.117 62.581 C 426.112 60.337, 424.390 57.702, 423.289 56.726 C 421.508 55.145, 421.403 54.452, 422.333 50.389 C 423.543 45.099, 422.388 38.098, 419.009 30.243 C 416.201 23.715, 412.066 21.595, 407.388 24.285 M 401.500 44.426 C 396.550 49.476, 389.681 55.466, 386.236 57.737 C 365.431 71.453, 343.044 71.190, 311.650 56.862 C 286.375 45.326, 273.914 42.135, 251 41.332 C 232.646 40.689, 220.257 42.026, 200.500 46.783 L 189.500 49.432 198.743 50.116 C 210.032 50.952, 220.399 53.977, 224.766 57.709 C 227.264 59.844, 228.852 62.850, 231.520 70.500 C 233.438 76, 243.292 104.350, 253.418 133.500 L 271.828 186.500 279.164 186 C 295.022 184.919, 314.223 185.742, 324.972 187.964 C 338.358 190.731, 344.492 192.800, 360.500 199.951 C 383.624 210.280, 398.170 213.670, 411.944 211.941 C 425.678 210.216, 437.808 203.251, 450.686 189.693 C 461.400 178.414, 461.078 179.201, 461.477 163.314 C 461.882 147.211, 461.613 146.405, 453.857 140.479 C 448.185 136.145, 446.848 134.158, 444.792 127.004 C 443.675 123.116, 442.756 122.076, 438 119.314 C 428.469 113.780, 428.674 114.052, 427.930 105.936 C 427.307 99.135, 426.982 98.322, 423.779 95.529 C 421.868 93.863, 419.728 91.408, 419.023 90.073 C 417.640 87.456, 417.427 79.801, 418.517 71.877 C 419.176 67.088, 419.068 66.797, 414.997 62.381 C 411.363 58.439, 410.882 57.401, 411.417 54.663 C 412.952 46.820, 413.067 42.298, 411.820 38.873 L 410.500 35.246 401.500 44.426 M 167.568 55.582 C 121.961 62.671, 69.273 85.812, 45.952 108.996 C 30.790 124.070, 30.106 134.928, 43.944 140.880 C 73.047 153.400, 150.639 134.441, 198 103.237 C 209.483 95.672, 223.118 82.015, 225.503 75.693 C 227.151 71.321, 227.184 70.460, 225.861 66.193 C 224.176 60.757, 220.359 58.110, 210.504 55.543 C 203.042 53.599, 180.189 53.620, 167.568 55.582 M 225.990 82.695 C 216.366 97.996, 187.739 116.751, 153.775 130.005 C 110.629 146.844, 65.083 153.103, 43.999 145.092 C 41.249 144.047, 39 143.631, 39 144.168 C 39 145.473, 85.722 279.903, 87.132 282.656 C 88.595 285.510, 96.210 289.513, 102.799 290.892 C 110.452 292.492, 131.535 292.253, 143.872 290.425 C 178.617 285.278, 221.320 269.311, 248.202 251.414 C 265.739 239.740, 277.966 226.275, 277.991 218.610 C 277.998 216.470, 230.799 78.466, 229.676 77.342 C 229.568 77.235, 227.909 79.643, 225.990 82.695 M 138.500 80.601 C 123.314 84.233, 108.980 90.466, 99.314 97.641 C 94.003 101.584, 89 108.096, 89 111.065 C 89 113.913, 92.921 117.884, 96.795 118.960 C 116.552 124.447, 163.039 107.082, 170.460 91.443 C 172.667 86.792, 171.217 82.806, 166.507 80.570 C 162.291 78.570, 146.924 78.587, 138.500 80.601" stroke="none" fill="black" fill-rule="evenodd"/>
</svg>